<?xml version="1.0" standalone="no"?>
<!DOCTYPE svg PUBLIC "-//W3C//DTD SVG 20010904//EN"
 "http://www.w3.org/TR/2001/REC-SVG-20010904/DTD/svg10.dtd">
<svg version="1.0" xmlns="http://www.w3.org/2000/svg"
 width="512.000000pt" height="512.000000pt" viewBox="0 0 512.000000 512.000000"
 preserveAspectRatio="xMidYMid meet">

<g transform="translate(0.000000,512.000000) scale(0.100000,-0.100000)"
fill="#000000" stroke="none">
<path d="M1835 4881 c-51 -23 -101 -79 -114 -128 -6 -21 -11 -138 -11 -265 l0
-228 -450 0 c-384 0 -456 -2 -488 -15 -93 -39 -142 -137 -120 -239 15 -71 84
-139 157 -155 74 -16 3428 -16 3502 0 73 16 142 84 157 155 22 102 -27 200
-120 239 -32 13 -104 15 -488 15 l-450 0 0 228 c0 127 -5 244 -11 265 -13 49
-63 105 -114 128 -37 17 -84 19 -725 19 -641 0 -688 -2 -725 -19z m1155 -511
l0 -110 -430 0 -430 0 0 110 0 110 430 0 430 0 0 -110z"/>
<path d="M969 3597 c-24 -13 -57 -43 -74 -66 l-30 -43 0 -1291 0 -1292 23 -78
c81 -281 298 -498 579 -579 l78 -23 1015 0 1015 0 78 23 c278 80 492 293 579
574 l23 73 3 1286 2 1285 -23 45 c-78 148 -290 145 -370 -5 l-22 -41 -5 -1265
-5 -1265 -32 -66 c-39 -80 -120 -159 -200 -197 l-58 -27 -985 0 -985 0 -66 32
c-80 39 -159 120 -197 200 l-27 58 -5 1265 -5 1265 -22 40 c-11 22 -32 50 -45
62 -60 56 -164 69 -239 30z"/>
<path d="M2075 3185 c-69 -18 -128 -82 -144 -154 -15 -70 -16 -1509 0 -1579
12 -59 61 -121 115 -147 75 -35 184 -14 241 47 55 58 53 33 53 888 0 691 -2
795 -15 828 -41 97 -143 144 -250 117z"/>
<path d="M2950 3190 c-73 -14 -127 -57 -155 -122 -13 -33 -15 -137 -15 -828 0
-855 -2 -830 53 -888 57 -61 166 -82 241 -47 54 26 103 88 115 147 15 68 15
1509 0 1577 -23 108 -133 182 -239 161z"/>
</g>
</svg>
