<?xml version="1.0" standalone="no"?>
<!DOCTYPE svg PUBLIC "-//W3C//DTD SVG 20010904//EN"
 "http://www.w3.org/TR/2001/REC-SVG-20010904/DTD/svg10.dtd">
<svg version="1.0" xmlns="http://www.w3.org/2000/svg"
 width="512.000000pt" height="512.000000pt" viewBox="0 0 512.000000 512.000000"
 preserveAspectRatio="xMidYMid meet">

<g transform="translate(0.000000,512.000000) scale(0.100000,-0.100000)"
fill="#000000" stroke="none">
<path d="M3655 4611 c-125 -32 -206 -71 -305 -147 -30 -23 -629 -618 -1332
-1321 -996 -997 -1277 -1285 -1282 -1308 -3 -16 -62 -293 -130 -616 -138 -645
-136 -627 -75 -688 52 -52 88 -57 219 -27 63 14 337 73 609 131 271 58 501
110 510 115 9 5 601 595 1316 1312 981 982 1309 1317 1334 1360 78 135 111
257 111 418 0 218 -65 385 -208 541 -106 114 -239 192 -396 229 -105 26 -272
26 -371 1z m308 -306 c87 -23 155 -61 218 -124 150 -151 182 -376 82 -576 -18
-34 -87 -112 -224 -250 l-199 -200 -342 343 -343 342 200 198 c207 205 252
238 356 266 71 19 181 20 252 1z m-1296 -2323 l-952 -952 -428 -92 c-235 -50
-430 -89 -433 -85 -3 3 35 199 85 434 l92 428 952 952 952 953 342 -342 343
-343 -953 -953z"/>
</g>
</svg>
